<svg xmlns="http://www.w3.org/2000/svg" version="1.1" xmlns:xlink="http://www.w3.org/1999/xlink" xmlns:svgjs="http://svgjs.dev/svgjs" width="1000" height="1000"><style>
    #light-icon {
      display: inline;
    }
    #dark-icon {
      display: none;
    }

    @media (prefers-color-scheme: dark) {
      #light-icon {
        display: none;
      }
      #dark-icon {
        display: inline;
      }
    }
  </style><g id="light-icon"><svg xmlns="http://www.w3.org/2000/svg" version="1.1" xmlns:xlink="http://www.w3.org/1999/xlink" xmlns:svgjs="http://svgjs.dev/svgjs" width="1000" height="1000"><g clip-path="url(#SvgjsClipPath1124)"><rect width="1000" height="1000" fill="#000000"></rect><g transform="matrix(1.818264466566662,0,0,1.818264466566662,100,235.0879585435702)"><svg xmlns="http://www.w3.org/2000/svg" version="1.1" xmlns:xlink="http://www.w3.org/1999/xlink" xmlns:svgjs="http://svgjs.dev/svgjs" width="439.98" height="291.39"><svg xmlns="http://www.w3.org/2000/svg" viewBox="0 0 439.98 291.39"><defs><style>.cls-1{fill:#fff;}</style><clipPath id="SvgjsClipPath1124"><rect width="1000" height="1000" x="0" y="0" rx="400" ry="400"></rect></clipPath></defs><g id="Capa_2" data-name="Capa 2"><g id="Capa_1-2" data-name="Capa 1"><path class="cls-1" d="M245.23,41.42c1.55-17.32-6.41-27.27-6.41-27.27h0A46.52,46.52,0,0,0,225.08,4,43,43,0,0,0,213.59.22c-12.12-1.82-25.86,8-33.73,17.92-10.49,13.15-7.66,22.47-16.81,63.53-4.25,19.11-6.85,32.76-12.63,33.43-6,.71-10-13-25.26-39C108.67,48,98.62,31.34,83.93,30.21c-11.82-.92-21.4,8.61-23.4,10.6-13.45,13.45-8.36,27.5-19,60.19-2.46,7.57-2,4.43-14.07,33.07-13.53,32-20.3,48-22.2,55.08-1.21,4.48-15.81,61.17,9.39,90.84,4.41,5.19,8.53,7.8,12.2,9.29,17.87,7.27,37.65-6.37,41.72-9.29,0,0,40.07-30.29,18.21-117.88h0c-2.74-6.33-9.83-22.68-6.11-39,.73-3.18,3.39-14.85,8.74-15.46,5.83-.67,11.61,12.14,16.13,22.18,0,0,11.71,26,11.71,54.71h0A64.45,64.45,0,0,1,115.68,199c-1.66,7.52-2.93,22.36-3.33,27.06-1.64,19.13-2.58,32.84,5.87,41.24,7.69,7.64,20.05,6,20.78,5.93,3-.42,7.86-1.69,14-6.72,13.51-11,17.88-27.8,19.4-34,9.95-40.57,1.68-53.4,10.59-83.71,5.54-18.82,14.52-31.65,19.64-40.6C222.61,73.34,243.55,60.28,245.23,41.42Z"></path><path class="cls-1" d="M379,131c6.21-1.54,22.27-4.86,37.5-17.6a50.13,50.13,0,0,0,5.13-4.71c12.05-13,23.58-37.63,15.92-54.3-5.22-11.36-15-11-81.54-23.45-36.89-6.92-49.8-8.84-59.61-6.33A37.05,37.05,0,0,0,286,29c-10.6,6.36-21.82,29.59-21.82,29.59-9.8,20-9,24.24-8.41,26.39,2,7,7.84,10.9,10.37,12.56,8.92,5.85,19.46,6.14,42.31,2.64,29.22-4.47,40.2-9.27,41.42-6.74,2.62,5.45-44.45,36.37-55.59,45-1,.79-5.19,4.05-11.15,8.15-2.71,1.86-4.75,3.17-5.16,3.43-18.63,12.1-37.76,33-37.76,33-16.33,17.85-24.5,26.77-27.58,38-1,3.57-7.53,27.55,5.31,42.56,11,12.9,31.27,13.48,58.49,13.66,8.2.05,17.09-.58,17.09-.58,16.3-1.32,25.87-4.54,58.53-6.18,41.65-2.09,48.49.69,59-6.55,28.18-19.4,32.84-76.3,13.11-89.62-12.84-8.68-34.68,2.06-37.15,3.28-20.79,10.22-19.95,25.49-39.35,38.25-19,12.48-47.31,16.06-54.54,6.24-8.46-11.51,10.66-43.24,32.24-61.6C331.23,155.52,352.24,137.65,379,131Z"></path></g></g></svg></svg></g></g></svg></g><g id="dark-icon"><svg xmlns="http://www.w3.org/2000/svg" version="1.1" xmlns:xlink="http://www.w3.org/1999/xlink" xmlns:svgjs="http://svgjs.dev/svgjs" width="1000" height="1000"><g clip-path="url(#SvgjsClipPath1125)"><rect width="1000" height="1000" fill="#000000"></rect><g transform="matrix(1.5909814082458293,0,0,1.5909814082458293,150,268.2019637256239)"><svg xmlns="http://www.w3.org/2000/svg" version="1.1" xmlns:xlink="http://www.w3.org/1999/xlink" xmlns:svgjs="http://svgjs.dev/svgjs" width="439.98" height="291.39"><svg xmlns="http://www.w3.org/2000/svg" viewBox="0 0 439.98 291.39"><defs><style>.cls-1{fill:#fff;}</style><clipPath id="SvgjsClipPath1125"><rect width="1000" height="1000" x="0" y="0" rx="350" ry="350"></rect></clipPath></defs><g id="Capa_2" data-name="Capa 2"><g id="Capa_1-2" data-name="Capa 1"><path class="cls-1" d="M245.23,41.42c1.55-17.32-6.41-27.27-6.41-27.27h0A46.52,46.52,0,0,0,225.08,4,43,43,0,0,0,213.59.22c-12.12-1.82-25.86,8-33.73,17.92-10.49,13.15-7.66,22.47-16.81,63.53-4.25,19.11-6.85,32.76-12.63,33.43-6,.71-10-13-25.26-39C108.67,48,98.62,31.34,83.93,30.21c-11.82-.92-21.4,8.61-23.4,10.6-13.45,13.45-8.36,27.5-19,60.19-2.46,7.57-2,4.43-14.07,33.07-13.53,32-20.3,48-22.2,55.08-1.21,4.48-15.81,61.17,9.39,90.84,4.41,5.19,8.53,7.8,12.2,9.29,17.87,7.27,37.65-6.37,41.72-9.29,0,0,40.07-30.29,18.21-117.88h0c-2.74-6.33-9.83-22.68-6.11-39,.73-3.18,3.39-14.85,8.74-15.46,5.83-.67,11.61,12.14,16.13,22.18,0,0,11.71,26,11.71,54.71h0A64.45,64.45,0,0,1,115.68,199c-1.66,7.52-2.93,22.36-3.33,27.06-1.64,19.13-2.58,32.84,5.87,41.24,7.69,7.64,20.05,6,20.78,5.93,3-.42,7.86-1.69,14-6.72,13.51-11,17.88-27.8,19.4-34,9.95-40.57,1.68-53.4,10.59-83.71,5.54-18.82,14.52-31.65,19.64-40.6C222.61,73.34,243.55,60.28,245.23,41.42Z"></path><path class="cls-1" d="M379,131c6.21-1.54,22.27-4.86,37.5-17.6a50.13,50.13,0,0,0,5.13-4.71c12.05-13,23.58-37.63,15.92-54.3-5.22-11.36-15-11-81.54-23.45-36.89-6.92-49.8-8.84-59.61-6.33A37.05,37.05,0,0,0,286,29c-10.6,6.36-21.82,29.59-21.82,29.59-9.8,20-9,24.24-8.41,26.39,2,7,7.84,10.9,10.37,12.56,8.92,5.85,19.46,6.14,42.31,2.64,29.22-4.47,40.2-9.27,41.42-6.74,2.62,5.45-44.45,36.37-55.59,45-1,.79-5.19,4.05-11.15,8.15-2.71,1.86-4.75,3.17-5.16,3.43-18.63,12.1-37.76,33-37.76,33-16.33,17.85-24.5,26.77-27.58,38-1,3.57-7.53,27.55,5.31,42.56,11,12.9,31.27,13.48,58.49,13.66,8.2.05,17.09-.58,17.09-.58,16.3-1.32,25.87-4.54,58.53-6.18,41.65-2.09,48.49.69,59-6.55,28.18-19.4,32.84-76.3,13.11-89.62-12.84-8.68-34.68,2.06-37.15,3.28-20.79,10.22-19.95,25.49-39.35,38.25-19,12.48-47.31,16.06-54.54,6.24-8.46-11.51,10.66-43.24,32.24-61.6C331.23,155.52,352.24,137.65,379,131Z"></path></g></g></svg></svg></g></g></svg></g></svg>